<svg id="Layer_1" data-name="Layer 1" xmlns="http://www.w3.org/2000/svg" xmlns:xlink="http://www.w3.org/1999/xlink" viewBox="0 0 228.67 228.67"><defs><style>.cls-1{fill:url(#linear-gradient);}.cls-2{fill:#1d1d1b;}.cls-3{fill:url(#linear-gradient-2);}.cls-4{fill:url(#linear-gradient-3);}.cls-5{fill:url(#linear-gradient-4);}.cls-6{fill:#fff;}.cls-7{fill:url(#linear-gradient-5);}.cls-8{fill:url(#linear-gradient-6);}.cls-9{fill:url(#linear-gradient-7);}.cls-10{fill:url(#linear-gradient-8);}.cls-11{fill:url(#linear-gradient-9);}</style><linearGradient id="linear-gradient" y1="114.34" x2="228.67" y2="114.34" gradientUnits="userSpaceOnUse"><stop offset="0" stop-color="#f59c1a"/><stop offset="0.13" stop-color="#f3941b"/><stop offset="0.34" stop-color="#ee7d1d"/><stop offset="0.6" stop-color="#e55821"/><stop offset="0.9" stop-color="#d92426"/><stop offset="1" stop-color="#d51128"/></linearGradient><linearGradient id="linear-gradient-2" x1="-236.7" y1="98.86" x2="-143.99" y2="98.86" gradientUnits="userSpaceOnUse"><stop offset="0" stop-color="#f59c1a"/><stop offset="1" stop-color="#d51128"/></linearGradient><linearGradient id="linear-gradient-3" x1="-184.47" y1="99.02" x2="-174.12" y2="99.02" xlink:href="#linear-gradient-2"/><linearGradient id="linear-gradient-4" x1="-195.16" y1="105.37" x2="-106.02" y2="105.37" gradientUnits="userSpaceOnUse"><stop offset="0" stop-color="#f59c1a"/><stop offset="0.52" stop-color="#d51128"/></linearGradient><linearGradient id="linear-gradient-5" x1="-174.12" y1="40.65" x2="-156.27" y2="40.65" xlink:href="#linear-gradient"/><linearGradient id="linear-gradient-6" x1="-109.58" y1="118.2" x2="-64.4" y2="118.2" gradientUnits="userSpaceOnUse"><stop offset="0" stop-color="#f59c1a"/><stop offset="0.38" stop-color="#d51128"/></linearGradient><linearGradient id="linear-gradient-7" x1="-129.91" y1="164.69" x2="-83.84" y2="164.69" xlink:href="#linear-gradient-4"/><linearGradient id="linear-gradient-8" x1="-233.43" y1="151.31" x2="-230.16" y2="151.31" xlink:href="#linear-gradient-2"/><linearGradient id="linear-gradient-9" x1="-142.66" y1="44.84" x2="-69.28" y2="44.84" gradientUnits="userSpaceOnUse"><stop offset="0" stop-color="#f59c1a"/><stop offset="0.24" stop-color="#d51128"/></linearGradient></defs><circle class="cls-1" cx="114.34" cy="114.34" r="114.34"/><path class="cls-2" d="M-97.86,202a154.62,154.62,0,0,1-32.66,11.46c-15.16,3.5-33.64,5.23-50.91.09l.1-.09c1.52-1.4,20.05-19,11.84-37.62-8.56-19.43-31-13-31-13A39.83,39.83,0,0,1-241,151.63s-7.31-5.88,0-9.45,38.51-34.23,39.22-36.9S-203,80.14-179.11,63.91c0,0,6.28-26.58,15.59-44.84a70.89,70.89,0,0,1,4.9-8.29,34.65,34.65,0,0,1,6.68,6.55c4.24,5.14,9.9,13.74,15.08,27.33a182.55,182.55,0,0,1,31.53-22.6c11.17-6.23,24.1-11.57,36.75-12.52,0,0,1,15.72.38,32.11-.32,8.54-1.07,17.25-2.62,24a.35.35,0,0,0,0,.06c-1.14,5-2.73,8.87-4.88,10.85C-75.71,76.57-18.43,142.27-97.86,202Z" transform="translate(256.54 -7.52)"/><path class="cls-3" d="M-236.7,142.36s30.48-22.46,35.3-31.2,4.1-7.31,4.63-13.37S-182,57.85-144,55.36c0,0-26.92,22.82-13.55,25.31,0,0-20.15,2.32-27.64,18.19,0,0-1.42-3.57,2.32-13.91a27.42,27.42,0,0,0-8.38,14.8c-1.6,9.09-8.91,21.39-38,42.61Z" transform="translate(256.54 -7.52)"/><path class="cls-4" d="M-184.47,102.25s-.53-3,10.35-7.85C-174.12,94.4-175.73,108-184.47,102.25Z" transform="translate(256.54 -7.52)"/><path class="cls-5" d="M-195.16,121.86l8.56-9.63a12.79,12.79,0,0,1,8-4.1c5.35-.71,9.8-9.27,9.8-9.27s6.78-10,26.75-10,34.23,10.65,36,14.78C-106,103.65-139,89.05-195.16,121.86Z" transform="translate(256.54 -7.52)"/><path class="cls-6" d="M-209.43,135.05s20.86-15.33,42.62-15,43.32,4.63,48,34.94c0,0,.35,17.65-4.64,23.71,0,0-.89-11.23-6.06-14.44,0,0,7.67,31.38-29.06,49.21,0,0,43.86-47.07-18.19-62.76,0,0,7-6.24,15.16-5.35,0,0-8.92-6.24-37.8,10.17s-29.06-8-24.78-8.74,29.59-22.64,84-2.68C-140.25,144.14-160.4,117-209.43,135.05Z" transform="translate(256.54 -7.52)"/><path class="cls-6" d="M-133.47,71.76s29.77-2.68,53.31-39.58c0,0,5.88,31.73-18.9,50.45L-109.58,81s7.84-4.1,11.59-14.62C-98,66.41-105.48,76.39-133.47,71.76Z" transform="translate(256.54 -7.52)"/><path class="cls-7" d="M-174.12,60.35s6.41-26.75,17.65-39.41C-156.47,20.94-153.09,48.22-174.12,60.35Z" transform="translate(256.54 -7.52)"/><path class="cls-8" d="M-109.58,85.66s41,18.19,44.21,65.08C-65.37,150.74-54,91.73-109.58,85.66Z" transform="translate(256.54 -7.52)"/><path class="cls-9" d="M-121.71,118.2s66.51,46.09-8.2,93h7s32.62-13.9,37.62-39.76S-86.76,126.14-121.71,118.2Z" transform="translate(256.54 -7.52)"/><path class="cls-10" d="M-230.38,149c-.42-.13-3.34,1.87-3,3.12s1.56,1.78,2,1.51S-229.62,149.18-230.38,149Z" transform="translate(256.54 -7.52)"/><path class="cls-11" d="M-70.82,65.66a.35.35,0,0,0,0,.06c-1,5-2.54,9-4.88,10.85l-2.76-2.23s7.58-12.14,6.55-35.5a115.26,115.26,0,0,0-2.81-20.39,102.77,102.77,0,0,0-18,8.39,161.32,161.32,0,0,0-49.95,45.1S-136.3,44.14-99,24.25A145.25,145.25,0,0,1-71.22,13.1s1.59,13.19,1.89,27.67C-69.15,49.46-69.44,58.62-70.82,65.66Z" transform="translate(256.54 -7.52)"/></svg>